<?xml version="1.0" encoding="UTF-8" standalone="no"?>
<svg
   xmlns:dc="http://purl.org/dc/elements/1.1/"
   xmlns:cc="http://creativecommons.org/ns#"
   xmlns:rdf="http://www.w3.org/1999/02/22-rdf-syntax-ns#"
   xmlns:svg="http://www.w3.org/2000/svg"
   xmlns="http://www.w3.org/2000/svg"
   id="svg8"
   version="1.1"
   viewBox="0 0 14 14"
   height="1.4cm"
   width="1.4cm">
  <defs
     id="defs2" />
  <metadata
     id="metadata5">
    <rdf:RDF>
      <cc:Work
         rdf:about="">
        <dc:format>image/svg+xml</dc:format>
        <dc:type
           rdf:resource="http://purl.org/dc/dcmitype/StillImage" />
        <dc:title></dc:title>
      </cc:Work>
    </rdf:RDF>
  </metadata>
  <g
     transform="translate(-23.375834,-34.820791)"
     id="layer1">
    <path
       id="path4635"
       d="m 30.404166,35.191625 -1.214395,0.701249 0.251148,0.435634 -3.299025,1.904791 -0.251664,-0.435631 -1.214396,0.701249 v 1.402498 h 0.502812 v 3.809587 H 24.675834 V 45.1135 l 1.214396,0.701249 0.251664,-0.435631 3.299025,1.904794 -0.251148,0.435631 1.214395,0.701249 1.214395,-0.701249 -0.251147,-0.435631 3.299026,-1.904794 0.251663,0.435631 1.214396,-0.701249 v -1.402498 h -0.502812 v -3.809587 h 0.502812 v -1.402498 l -1.214396,-0.701249 -0.251663,0.435631 -3.299026,-1.904791 0.251147,-0.435634 z m 0,0.580843 0.111104,0.06408 v 1.693955 l 3.53622,2.041734 1.467093,-0.846976 0.111104,0.06408 v 0.128157 l -1.467093,0.846976 v 4.083473 l 1.467093,0.846976 v 0.128159 l -0.111622,0.06408 -1.466575,-0.846976 -3.53622,2.041736 v 1.693953 l -0.111104,0.06408 -0.111104,-0.06408 v -1.693953 l -3.536218,-2.041736 -1.466577,0.846976 -0.111621,-0.06408 v -0.128159 l 1.467093,-0.846976 v -4.083473 l -1.467093,-0.846976 v -0.128157 l 0.111104,-0.06408 1.467094,0.846976 3.536218,-2.041734 v -1.693955 z m 0,2.128035 -3.382739,1.952853 v 3.905705 l 3.382739,1.952852 3.382741,-1.952852 v -3.905705 z m -0.111104,0.279054 v 1.11311 l -2.010214,1.160653 -0.964281,-0.556557 z m 0.222208,0 2.974496,1.717206 -0.964282,0.556557 -2.010214,-1.160653 z m -3.307808,1.909445 0.964282,0.556553 v 2.321306 l -0.964282,0.556557 z m 6.393408,0 v 3.434416 l -0.964282,-0.556557 v -2.321306 z m -5.318022,3.070095 2.010214,1.160653 v 1.113629 l -2.974495,-1.717726 z m 4.242636,0 0.964282,0.556556 -2.974496,1.717726 V 44.31975 Z"
       style="fill:#ffffff;fill-opacity:1;stroke:none;stroke-width:0.64953899;stroke-miterlimit:4;stroke-dasharray:none;stroke-dashoffset:0;stroke-opacity:1" />
    <path
       id="path4705"
       d="m 30.404166,39.479735 -1.903759,1.099159 1.875338,1.082622 c 0.01146,0.0066 0.02035,0.0158 0.02842,0.02532 0.0081,-0.0095 0.01696,-0.01871 0.02842,-0.02532 l 1.875337,-1.082622 z"
       style="fill:#3fee3f;fill-opacity:1;stroke:none;stroke-width:0.38685605;stroke-miterlimit:4;stroke-dasharray:none;stroke-dashoffset:0;stroke-opacity:1" />
    <path
       id="path4703"
       d="m 28.389819,40.771648 v 2.197798 l 1.903243,1.099156 v -2.165241 c 0,-0.0132 0.0036,-0.02548 0.0078,-0.03721 -0.01233,-0.0021 -0.02466,-0.0052 -0.03617,-0.01188 z"
       style="fill:#ff791f;fill-opacity:1;stroke:none;stroke-width:0.38685605;stroke-miterlimit:4;stroke-dasharray:none;stroke-dashoffset:0;stroke-opacity:1" />
    <path
       id="path4642"
       d="m 32.419029,40.771648 -1.875337,1.082619 c -0.01151,0.0066 -0.02384,0.0097 -0.03617,0.01188 0.0042,0.01172 0.0078,0.024 0.0078,0.03721 v 2.165241 l 1.903759,-1.099156 z"
       style="fill:#00ccff;fill-opacity:1;stroke:none;stroke-width:0.38685605;stroke-miterlimit:4;stroke-dasharray:none;stroke-dashoffset:0;stroke-opacity:1" />
  </g>
</svg>
