<svg xmlns="http://www.w3.org/2000/svg" xmlns:xlink="http://www.w3.org/1999/xlink" viewBox="0 0 96.94 95.68"><defs><style>.cls-1{fill:none;}.cls-2{fill:#fff;}.cls-3{clip-path:url(#clip-path);}</style><clipPath id="clip-path" transform="translate(0 -4.84)"><path class="cls-1" d="M17.23,97.58c.76-1.53,9.5-27.91,9.5-27.91l32.44,1.22-10.8-39.4H2.27L0,30.38,15.29,7.66,65.34,0,99,18.13l5.62,55.66S85.08,101.28,78.1,102.13s-50.5,1.53-50.5,1.53Z"/></clipPath></defs><g id="Ebene_2" data-name="Ebene 2"><g id="Ebene_1-2" data-name="Ebene 1"><polygon class="cls-2" points="3.29 31.16 0 41.08 19.54 41.14 2.27 92.74 13 92.74 29.99 41.18 64.83 41.3 68.21 31.12 3.29 31.16"/><polygon class="cls-2" points="27.6 62.49 52.58 62.58 55.95 52.4 30.89 52.41 27.6 62.49"/><g class="cls-3"><path class="cls-2" d="M96.94,62.91V42.54H85.46a37.85,37.85,0,0,0-3.33-8.13l8.3-8.3L76,11.71l-8.21,8.2a37.77,37.77,0,0,0-8.58-3.59V4.84H38.87V16.32A37.34,37.34,0,0,0,30.22,20L21.31,11,7.73,24.63l8.81,8.81a37.31,37.31,0,0,0-4.06,9.68H0V62.33H12.48a37.65,37.65,0,0,0,3.76,9.17L8.06,79.67,22.47,94.08l8.27-8.27a37.65,37.65,0,0,0,8.13,3.33v11.37H59.24V89.14a37.36,37.36,0,0,0,8.58-3.6L76,93.75l14.4-14.41L82.13,71a37.65,37.65,0,0,0,3.33-8.13Zm-50.2,18.4a28.68,28.68,0,1,1,4.62,0Z" transform="translate(0 -4.84)"/></g></g></g></svg>