<svg xmlns="http://www.w3.org/2000/svg" xmlns:xlink="http://www.w3.org/1999/xlink" viewBox="0 0 196.5 69.77"><defs><style>.cls-1{fill:#1d1d1b;}.cls-2{fill:#fff;}.cls-3{fill:none;}.cls-4{fill:url(#Unbenannter_Verlauf_2);}.cls-5{fill:url(#Unbenannter_Verlauf_2-2);}</style><linearGradient id="Unbenannter_Verlauf_2" x1="2.71" y1="107.9" x2="56.32" y2="-3.22" gradientUnits="userSpaceOnUse"><stop offset="0.07" stop-color="#948a73"/><stop offset="0.4" stop-color="#978d76"/><stop offset="1" stop-color="#e0d8b6"/></linearGradient><linearGradient id="Unbenannter_Verlauf_2-2" x1="0.17" y1="106.67" x2="53.78" y2="-4.45" xlink:href="#Unbenannter_Verlauf_2"/></defs><g id="Ebene_2" data-name="Ebene 2"><g id="Ebene_1-2" data-name="Ebene 1"><circle class="cls-1" cx="36.11" cy="34.99" r="19.73"/><path class="cls-1" d="M26.93,61.47a27.83,27.83,0,0,1-3.09-1.27l-5.95,6-4.27-4.28.4-1.18C15.63,56,18,48.84,18.7,46.76l1.17-3.53,2.3,2.92a17.3,17.3,0,0,0,12.14,6.57h2.91l.38,0,3.1-.33L35,69.44l-8,.28Z"/><path class="cls-1" d="M43.29,60.48l4-12.07.37-.35a17.1,17.1,0,0,0,5.44-12.57A17.28,17.28,0,0,0,24.19,22.67l-.57.52H11.76L5.14,16.58l12-12L23.47,11a26.9,26.9,0,0,1,3.46-1.45V1.26H44.64V9.51a28.25,28.25,0,0,1,3.41,1.43l5.89-5.89L66.46,17.57l-6,6a26,26,0,0,1,1.27,3.09H70v12H68l-1.9,5.68H61.76a26,26,0,0,1-1.27,3.09l3.42,3.42-2.58,7.68-1.94,1.94H48.49L48,60l-.93.45Z"/><polygon class="cls-1" points="40.23 67.63 33.33 67.63 43.73 36.54 53.42 36.58 46.24 58.34 59.13 58.33 56.04 67.68 40.23 67.63"/><polygon class="cls-2" points="43.48 60.34 50.66 38.57 45.17 38.55 36.11 65.63 41.48 65.63 41.48 65.63 54.59 65.68 56.36 60.34 43.48 60.34"/><path class="cls-3" d="M34.23,54.72h3.11c.16,0,.31,0,.47-.06l2.36-7-19.41-.73-.17.5A19.29,19.29,0,0,0,34.23,54.72Z"/><path class="cls-3" d="M55.08,35.49a19.28,19.28,0,0,0-32.24-14.3H35.32l.83,3H48.67L46.4,31.05,38,31l2,7.5h.35l-.19.59,1.26,4.58,2.34-7,9.4,0L49,49.52A19.24,19.24,0,0,0,55.08,35.49Z"/><path class="cls-3" d="M46.66,58.48h2.66l-.91-.91C47.85,57.9,47.26,58.2,46.66,58.48Z"/><path class="cls-3" d="M17.11,7.43l6,6A25.43,25.43,0,0,1,28.93,11V3.26H42.64V11a25.34,25.34,0,0,1,5.77,2.42l5.53-5.52,9.69,9.69L58,23.16a25.49,25.49,0,0,1,2.25,5.47H68v8h3.88L69.42,12.2,46.74,0,13.06,5.16,2.77,20.45l1.53.74h8.29L8,16.58Z"/><path class="cls-3" d="M58,47.81l3.58,3.58,3-9H60.29A25.28,25.28,0,0,1,58,47.81Z"/><path class="cls-3" d="M59.59,57.45l-1,1h.38l-3,9.08-13.3,0v.15H28.93V60a25.25,25.25,0,0,1-5.47-2.24l-5.57,5.57-2-2c-.79,2.3-1.4,4-1.55,4.33l7,4.1s29.3-.46,34-1a6.07,6.07,0,0,0,2.51-1.27H56.23Z"/><polygon class="cls-1" points="1.52 67.67 13.14 32.94 0 32.89 3.53 22.23 51.44 22.2 47.85 33.06 24.4 32.98 12.96 67.67 1.52 67.67"/><polygon class="cls-1" points="18.58 47.31 22.11 36.53 43.19 36.52 39.6 47.38 18.58 47.31"/><polygon class="cls-2" points="36.15 24.21 4.98 24.23 2.77 30.9 15.92 30.95 4.3 65.67 11.51 65.67 22.95 30.97 38.02 31.02 46.4 31.05 48.67 24.2 36.15 24.21"/><polygon class="cls-2" points="23.56 38.53 21.34 45.32 38.16 45.38 40.23 39.11 40.42 38.52 40.07 38.52 23.56 38.53"/><path class="cls-4" d="M23.46,57.75A25.25,25.25,0,0,0,28.93,60v7.66l4.59-.16,4.29-12.83c-.16,0-.31.05-.47.06H34.23a19.29,19.29,0,0,1-13.64-7.33c-.64,1.94-3,9.17-4.68,14l2,2Z"/><path class="cls-5" d="M61.62,51.39,58,47.81a25.28,25.28,0,0,0,2.25-5.47h4.35l1.91-5.68H68v-8H60.29A25.49,25.49,0,0,0,58,23.16l5.59-5.59L53.94,7.88,48.41,13.4A25.34,25.34,0,0,0,42.64,11V3.26H28.93V11a25.43,25.43,0,0,0-5.83,2.45l-6-6L8,16.58l4.62,4.61H22.84A19.28,19.28,0,0,1,49,49.52l-2.95,9h.6c.6-.28,1.19-.58,1.75-.91l.91.91h9.24l1-1Z"/><path class="cls-1" d="M69.36,67.6l2.74-8.19H68.6l-2.7,8.2H56L66.45,36.52H85.19v0h4.25L79.21,67.6Zm2.31-17.51h3.55l1.42-4.24H73.07Z"/><polygon class="cls-1" points="79.58 67.63 89.98 36.54 93.54 36.56 114.14 36.55 111.04 45.9 96.61 45.86 92.52 58.27 96.9 58.26 99.22 51.77 108.91 51.8 103.55 67.35 103.53 67.35 103.44 67.61 89.37 67.57 87.98 67.63 79.58 67.63"/><path class="cls-1" d="M113.91,67.63l2.59-8.23h-.19l-2.71,8.2h-9.85l10.41-31.08h19.19v0h3.8l-7.59,22.88h-3.33l-2.48,8.2Zm5.47-17.54h3.49l1.44-4.24h-3.53Z"/><polygon class="cls-1" points="140.17 67.6 140.18 67.58 136.46 67.57 135.19 67.6 126.78 67.6 137.19 36.52 146.87 36.55 139.71 58.27 143.26 58.26 150.54 36.52 160.22 36.55 149.99 67.6 140.17 67.6"/><polygon class="cls-1" points="176.42 67.6 183.57 45.89 180.02 45.89 172.75 67.63 163.06 67.6 170.22 45.89 166.67 45.89 159.4 67.63 149.71 67.6 159.95 36.55 169.93 36.55 169.92 36.57 173.44 36.58 174.75 36.55 183.08 36.55 183.07 36.57 186.79 36.58 188.1 36.55 196.5 36.55 186.1 67.63 176.42 67.6"/><path class="cls-2" d="M82.79,38.53H67.89L58.82,65.6h5.63l2.71-8.21,7.71,0L72.13,65.6h5.63l8.92-27.06ZM76.66,52.09H68.9l2.73-8.26,7.78,0Z"/><polygon class="cls-2" points="98.31 60.26 89.75 60.27 95.16 43.86 109.6 43.89 111.37 38.55 93.53 38.56 91.42 38.55 82.36 65.63 87.98 65.63 88 65.57 102 65.6 102.08 65.35 102.12 65.35 106.11 53.79 100.63 53.77 98.31 60.26"/><path class="cls-2" d="M130.5,38.53H115.59L106.53,65.6h5.63l2.7-8.21,4.36,0-2.59,8.22h5.63l2.49-8.2h3.37l6.27-18.89Zm-6.2,13.56h-7.69l2.72-8.26,7.76,0Z"/><polygon class="cls-2" points="151.97 38.52 144.7 60.26 136.95 60.27 144.11 38.54 138.62 38.52 129.56 65.6 135.19 65.6 135.2 65.57 142.91 65.59 142.91 65.6 148.54 65.6 157.46 38.54 151.97 38.52"/><polygon class="cls-2" points="188.1 38.55 188.09 38.59 180.37 38.56 180.37 38.55 174.75 38.55 174.73 38.59 167.02 38.56 167.02 38.55 161.39 38.55 152.47 65.61 157.96 65.63 165.23 43.89 172.99 43.89 165.83 65.61 171.31 65.63 178.59 43.89 186.34 43.89 179.18 65.61 184.66 65.63 193.72 38.55 188.1 38.55"/></g></g></svg>